REM DIRINDEX 1\2,1\3
REM DIRNAME cjc102,folder01,folder02
TITLE ""
FILE "CD1Track34.mp3" MP3
  TRACK 01 AUDIO
    TITLE "0:"
    INDEX 01 00:00:00
  TRACK 02 AUDIO
    TITLE "2:cjc102_1625"
    INDEX 01 00:00:27
  TRACK 03 AUDIO
    TITLE "0:"
    INDEX 01 00:01:38
  TRACK 04 AUDIO
    TITLE "3:cjc102_1626"
    INDEX 01 00:01:40
  TRACK 05 AUDIO
    TITLE "0:"
    INDEX 01 00:03:02
  TRACK 06 AUDIO
    TITLE "3:cjc102_1627"
    INDEX 01 00:03:12
  TRACK 07 AUDIO
    TITLE "0:"
    INDEX 01 00:08:72
  TRACK 08 AUDIO
    TITLE "2:cjc102_1628"
    INDEX 01 00:09:00
  TRACK 09 AUDIO
    TITLE "0:"
    INDEX 01 00:10:14
  TRACK 10 AUDIO
    TITLE "3:cjc102_1629"
    INDEX 01 00:11:13
  TRACK 11 AUDIO
    TITLE "0:"
    INDEX 01 00:12:07
  TRACK 12 AUDIO
    TITLE "2:cjc102_1630"
    INDEX 01 00:12:14
  TRACK 13 AUDIO
    TITLE "0:"
    INDEX 01 00:13:39
  TRACK 14 AUDIO
    TITLE "3:cjc102_1631"
    INDEX 01 00:14:02
  TRACK 15 AUDIO
    TITLE "0:"
    INDEX 01 00:14:60
  TRACK 16 AUDIO
    TITLE "2:cjc102_1632"
    INDEX 01 00:15:09
  TRACK 17 AUDIO
    TITLE "0:"
    INDEX 01 00:16:26
  TRACK 18 AUDIO
    TITLE "3:cjc102_1633"
    INDEX 01 00:16:71
  TRACK 19 AUDIO
    TITLE "0:"
    INDEX 01 00:17:70
  TRACK 20 AUDIO
    TITLE "2:cjc102_1634"
    INDEX 01 00:17:72
  TRACK 21 AUDIO
    TITLE "0:"
    INDEX 01 00:19:09
  TRACK 22 AUDIO
    TITLE "3:cjc102_1635"
    INDEX 01 00:19:62
  TRACK 23 AUDIO
    TITLE "0:"
    INDEX 01 00:20:57
  TRACK 24 AUDIO
    TITLE "2:cjc102_1636"
    INDEX 01 00:21:02
  TRACK 25 AUDIO
    TITLE "0:"
    INDEX 01 00:22:09
  TRACK 26 AUDIO
    TITLE "3:cjc102_1637"
    INDEX 01 00:22:52
  TRACK 27 AUDIO
    TITLE "0:"
    INDEX 01 00:23:30
  TRACK 28 AUDIO
    TITLE "2:cjc102_1638"
    INDEX 01 00:23:63
  TRACK 29 AUDIO
    TITLE "0:"
    INDEX 01 00:25:13
  TRACK 30 AUDIO
    TITLE "3:cjc102_1639"
    INDEX 01 00:25:70
  TRACK 31 AUDIO
    TITLE "0:"
    INDEX 01 00:26:56
  TRACK 32 AUDIO
    TITLE "2:cjc102_1640"
    INDEX 01 00:26:62
  TRACK 33 AUDIO
    TITLE "0:"
    INDEX 01 00:28:00
  TRACK 34 AUDIO
    TITLE "3:cjc102_1641"
    INDEX 01 00:28:49
  TRACK 35 AUDIO
    TITLE "0:"
    INDEX 01 00:29:42
  TRACK 36 AUDIO
    TITLE "2:cjc102_1642"
    INDEX 01 00:29:54
  TRACK 37 AUDIO
    TITLE "0:"
    INDEX 01 00:30:65
  TRACK 38 AUDIO
    TITLE "3:cjc102_1643"
    INDEX 01 00:31:43
  TRACK 39 AUDIO
    TITLE "0:"
    INDEX 01 00:32:39
  TRACK 40 AUDIO
    TITLE "2:cjc102_1644"
    INDEX 01 00:32:74
  TRACK 41 AUDIO
    TITLE "0:"
    INDEX 01 00:34:12
  TRACK 42 AUDIO
    TITLE "3:cjc102_1645"
    INDEX 01 00:35:29
  TRACK 43 AUDIO
    TITLE "0:"
    INDEX 01 00:36:21
  TRACK 44 AUDIO
    TITLE "2:cjc102_1646"
    INDEX 01 00:36:35
  TRACK 45 AUDIO
    TITLE "0:"
    INDEX 01 00:37:42
  TRACK 46 AUDIO
    TITLE "2:cjc102_1647"
    INDEX 01 00:38:33
  TRACK 47 AUDIO
    TITLE "0:"
    INDEX 01 00:39:58
  TRACK 48 AUDIO
    TITLE "3:cjc102_1648"
    INDEX 01 00:41:04
  TRACK 49 AUDIO
    TITLE "0:"
    INDEX 01 00:41:73
  TRACK 50 AUDIO
    TITLE "2:cjc102_1649"
    INDEX 01 00:42:47
  TRACK 51 AUDIO
    TITLE "0:"
    INDEX 01 00:43:52
  TRACK 52 AUDIO
    TITLE "2:cjc102_1650"
    INDEX 01 00:44:18
  TRACK 53 AUDIO
    TITLE "0:"
    INDEX 01 00:45:26
  TRACK 54 AUDIO
    TITLE "3:cjc102_1651"
    INDEX 01 00:46:37
  TRACK 55 AUDIO
    TITLE "0:"
    INDEX 01 00:47:54
  TRACK 56 AUDIO
    TITLE "2:cjc102_1652"
    INDEX 01 00:48:12
  TRACK 57 AUDIO
    TITLE "0:"
    INDEX 01 00:51:34
  TRACK 58 AUDIO
    TITLE "3:cjc102_1653"
    INDEX 01 00:52:02
  TRACK 59 AUDIO
    TITLE "0:"
    INDEX 01 00:53:13
  TRACK 60 AUDIO
    TITLE "2:cjc102_1654"
    INDEX 01 00:53:51
  TRACK 61 AUDIO
    TITLE "0:"
    INDEX 01 00:58:03
  TRACK 62 AUDIO
    TITLE "3:cjc102_1655"
    INDEX 01 00:58:71
  TRACK 63 AUDIO
    TITLE "0:"
    INDEX 01 01:00:17
  TRACK 64 AUDIO
    TITLE "2:cjc102_1656"
    INDEX 01 01:00:66
  TRACK 65 AUDIO
    TITLE "0:"
    INDEX 01 01:06:16
  TRACK 66 AUDIO
    TITLE "3:cjc102_1657"
    INDEX 01 01:06:63
  TRACK 67 AUDIO
    TITLE "0:"
    INDEX 01 01:08:09
  TRACK 68 AUDIO
    TITLE "2:cjc102_1658"
    INDEX 01 01:08:48
  TRACK 69 AUDIO
    TITLE "0:"
    INDEX 01 01:10:06
  TRACK 70 AUDIO
    TITLE "3:cjc102_1659"
    INDEX 01 01:10:41
  TRACK 71 AUDIO
    TITLE "0:"
    INDEX 01 01:11:47
  TRACK 72 AUDIO
    TITLE "2:cjc102_1660"
    INDEX 01 01:12:01
  TRACK 73 AUDIO
    TITLE "0:"
    INDEX 01 01:13:22
